<svg xmlns:mydata="http://www.w3.org/2000/svg" mydata:contrastcolor="000000" mydata:template="Contrast" mydata:presentation="2.5" mydata:layouttype="undefined" mydata:specialfontid="undefined" mydata:id1="005" mydata:id2="192" mydata:companyname="FLUX Hub" mydata:companytagline="Fetch, Load, Use, Xtract" version="1.1" xmlns="http://www.w3.org/2000/svg" xmlns:xlink="http://www.w3.org/1999/xlink" viewBox="101.85618629782165 115 346.2876274043567 240" class="watermark-logo" width="346.2876274043567"  height="240" ><g fill="#c8f542" fill-rule="none" stroke="none" stroke-width="1" stroke-linecap="butt" stroke-linejoin="miter" stroke-miterlimit="10" stroke-dasharray="" stroke-dashoffset="0" font-family="none" font-weight="none" font-size="none" text-anchor="none" style="mix-blend-mode: normal"><g data-paper-data="{&quot;isGlobalGroup&quot;:true,&quot;bounds&quot;:{&quot;x&quot;:101.85618629782165,&quot;y&quot;:115,&quot;width&quot;:346.2876274043567,&quot;height&quot;:240}}" fill="#c8f542"><g data-paper-data="{&quot;isSecondaryText&quot;:true}" fill-rule="nonzero" fill="#c8f542"><path d="M109.76179,338.35778v14.06385h2.92095v-5.91403h4.70598v-2.52428h-4.70598v-3.10126h5.60751v-2.52428z" data-paper-data="{&quot;glyphName&quot;:&quot;F&quot;,&quot;glyphIndex&quot;:0,&quot;firstGlyphOfWord&quot;:true,&quot;word&quot;:1}" style="" fill="#c8f542"></path><path d="M124.45622,338.35778v14.06385h8.60059v-2.52428h-5.67963v-3.38975h4.7781v-2.52428h-4.7781v-3.10126h5.67963v-2.52428z" data-paper-data="{&quot;glyphName&quot;:&quot;E&quot;,&quot;glyphIndex&quot;:1,&quot;word&quot;:1}" style="" fill="#c8f542"></path><path d="M145.05486,340.88206h3.26353v-2.52428h-9.42999v2.52428h3.2455v11.53957h2.92095z" data-paper-data="{&quot;glyphName&quot;:&quot;T&quot;,&quot;glyphIndex&quot;:2,&quot;word&quot;:1}" style="" fill="#c8f542"></path><path d="M156.82283,345.75031v-0.72122c0,-2.81277 0.45076,-4.38143 2.32594,-4.38143h0.16228c1.5326,0 1.9473,1.1179 1.9473,3.04717h2.92095v-0.6491c0,-3.51596 -1.69487,-4.92235 -5.03053,-4.92235c-3.66021,0 -5.28296,2.03746 -5.28296,6.90571v0.72122c0,4.86826 1.62275,6.90571 5.28296,6.90571c3.33566,0 5.03053,-1.40639 5.03053,-4.86826v-0.16228h-2.92095c0,1.51457 -0.52289,2.50625 -1.9473,2.50625h-0.16228c-1.87518,0 -2.32594,-1.56866 -2.32594,-4.38143z" data-paper-data="{&quot;glyphName&quot;:&quot;C&quot;,&quot;glyphIndex&quot;:3,&quot;word&quot;:1}" style="" fill="#c8f542"></path><path d="M177.84615,338.35778v5.62554h-4.09294v-5.62554h-2.92095v14.06385h2.92095v-5.91403h4.09294v5.91403h2.92095v-14.06385z" data-paper-data="{&quot;glyphName&quot;:&quot;H&quot;,&quot;glyphIndex&quot;:4,&quot;word&quot;:1}" style="" fill="#c8f542"></path><path d="M190.34525,349.41052h-2.99308v3.01111h1.51457c-0.18031,0.77531 -0.73925,1.15396 -1.60472,1.15396v1.42442c2.03746,0 3.08323,-1.09987 3.08323,-3.20944z" data-paper-data="{&quot;glyphName&quot;:&quot;,&quot;,&quot;glyphIndex&quot;:5,&quot;lastGlyphOfWord&quot;:true,&quot;word&quot;:1}" style="" fill="#c8f542"></path><path d="M212.90317,352.42163v-2.52428h-5.19281v-11.53957h-2.92095v14.06385z" data-paper-data="{&quot;glyphName&quot;:&quot;L&quot;,&quot;glyphIndex&quot;:6,&quot;firstGlyphOfWord&quot;:true,&quot;word&quot;:2}" style="" fill="#c8f542"></path><path d="M223.73266,352.65602c3.66021,0 5.37311,-2.03746 5.37311,-6.90571v-0.72122c0,-4.86826 -1.7129,-6.90571 -5.37311,-6.90571c-3.64218,0 -5.35508,2.03746 -5.35508,6.90571v0.72122c0,4.86826 1.7129,6.90571 5.35508,6.90571zM223.66054,350.13174c-1.80306,0 -2.32594,-1.56866 -2.32594,-4.38143v-0.72122c0,-2.81277 0.52289,-4.38143 2.32594,-4.38143h0.16228c1.80306,0 2.30791,1.56866 2.30791,4.38143v0.72122c0,2.81277 -0.50486,4.38143 -2.30791,4.38143z" data-paper-data="{&quot;glyphName&quot;:&quot;O&quot;,&quot;glyphIndex&quot;:7,&quot;word&quot;:2}" style="" fill="#c8f542"></path><path d="M238.28529,338.32171l-3.51596,14.09991h3.13732l0.66713,-3.02914h3.44384l0.68516,3.02914h3.11929l-3.51596,-14.09991zM240.28668,341.69343l1.15396,5.17478h-2.30791z" data-paper-data="{&quot;glyphName&quot;:&quot;A&quot;,&quot;glyphIndex&quot;:8,&quot;word&quot;:2}" style="" fill="#c8f542"></path><path d="M262.27109,345.75031v-0.72122c0,-4.86826 -1.74897,-6.67131 -5.93206,-6.67131h-4.30931v14.06385h4.30931c4.18309,0 5.93206,-1.80306 5.93206,-6.67131zM254.95067,349.89735v-9.01529h1.22608c2.43413,0 3.11929,1.33426 3.11929,4.14703v0.72122c0,2.81277 -0.68516,4.14703 -3.11929,4.14703z" data-paper-data="{&quot;glyphName&quot;:&quot;D&quot;,&quot;glyphIndex&quot;:9,&quot;word&quot;:2}" style="" fill="#c8f542"></path><path d="M271.53109,349.41052h-2.99308v3.01111h1.51457c-0.18031,0.77531 -0.73925,1.15396 -1.60472,1.15396v1.42442c2.03746,0 3.08323,-1.09987 3.08323,-3.20944z" data-paper-data="{&quot;glyphName&quot;:&quot;,&quot;,&quot;glyphIndex&quot;:10,&quot;lastGlyphOfWord&quot;:true,&quot;word&quot;:2}" style="" fill="#c8f542"></path><path d="M291.00277,352.65602c3.82248,0 5.06659,-1.62275 5.06659,-4.68795v-9.6103h-2.92095v9.52015c0,1.49654 -0.48683,2.25382 -2.14564,2.25382c-1.65881,0 -2.12761,-0.75728 -2.12761,-2.25382v-9.52015h-2.92095v9.6103c0,3.0652 1.22608,4.68795 5.04856,4.68795z" data-paper-data="{&quot;glyphName&quot;:&quot;U&quot;,&quot;glyphIndex&quot;:11,&quot;firstGlyphOfWord&quot;:true,&quot;word&quot;:3}" style="" fill="#c8f542"></path><path d="M307.14482,346.54366c2.03746,0.27046 2.56034,0.82941 2.56034,1.83912v0.09015c0,0.93759 -0.66713,1.65881 -2.01942,1.65881h-0.16228c-1.35229,0 -2.07352,-0.73925 -2.07352,-2.50625h-2.92095v0.16228c0,3.38975 1.74897,4.86826 5.06659,4.86826c3.2996,0 5.08462,-1.56866 5.08462,-4.27325v-0.18031c0,-2.61443 -1.55063,-3.66021 -4.61583,-4.07491c-2.05549,-0.27046 -2.47019,-0.81138 -2.47019,-1.83912v-0.09015c0,-0.90153 0.68516,-1.55063 1.85715,-1.55063h0.16228c1.47851,0 2.03746,0.84744 2.03746,2.68656h2.92095v-0.37864c0,-3.2996 -1.51457,-4.8322 -4.97644,-4.8322c-3.20944,0 -4.95841,1.64078 -4.95841,4.18309v0.19834c0,2.54231 1.44245,3.62415 4.50764,4.03885z" data-paper-data="{&quot;glyphName&quot;:&quot;S&quot;,&quot;glyphIndex&quot;:12,&quot;word&quot;:3}" style="" fill="#c8f542"></path><path d="M319.17936,338.35778v14.06385h8.60059v-2.52428h-5.67963v-3.38975h4.7781v-2.52428h-4.7781v-3.10126h5.67963v-2.52428z" data-paper-data="{&quot;glyphName&quot;:&quot;E&quot;,&quot;glyphIndex&quot;:13,&quot;word&quot;:3}" style="" fill="#c8f542"></path><path d="M336.99707,349.41052h-2.99308v3.01111h1.51457c-0.18031,0.77531 -0.73925,1.15396 -1.60472,1.15396v1.42442c2.03746,0 3.08323,-1.09987 3.08323,-3.20944z" data-paper-data="{&quot;glyphName&quot;:&quot;,&quot;,&quot;glyphIndex&quot;:14,&quot;lastGlyphOfWord&quot;:true,&quot;word&quot;:3}" style="" fill="#c8f542"></path><path d="M350.83363,352.42163h3.22747l2.27185,-5.2469l2.27185,5.2469h3.2455l-3.42581,-7.37451l3.42581,-6.68934h-3.38975l-2.12761,4.66992l-2.10958,-4.66992h-3.38975l3.42581,6.68934z" data-paper-data="{&quot;glyphName&quot;:&quot;X&quot;,&quot;glyphIndex&quot;:15,&quot;firstGlyphOfWord&quot;:true,&quot;word&quot;:4}" style="" fill="#c8f542"></path><path d="M373.53268,340.88206h3.26353v-2.52428h-9.42999v2.52428h3.2455v11.53957h2.92095z" data-paper-data="{&quot;glyphName&quot;:&quot;T&quot;,&quot;glyphIndex&quot;:16,&quot;word&quot;:4}" style="" fill="#c8f542"></path><path d="M385.89338,347.37307h1.49654l1.92927,5.04856h3.15535l-2.21776,-5.46327c1.26214,-0.52289 2.21776,-1.64078 2.21776,-3.91264v-0.36061c0,-3.73233 -2.5964,-4.32734 -4.88629,-4.32734h-4.61583v14.06385h2.92095zM385.89338,344.84878v-3.96673h1.82109c0.79335,0 1.80306,0.30652 1.80306,1.89321v0.18031c0,1.58669 -1.00971,1.89321 -1.80306,1.89321z" data-paper-data="{&quot;glyphName&quot;:&quot;R&quot;,&quot;glyphIndex&quot;:17,&quot;word&quot;:4}" style="" fill="#c8f542"></path><path d="M401.66572,338.32171l-3.51596,14.09991h3.13732l0.66713,-3.02914h3.44384l0.68516,3.02914h3.11929l-3.51596,-14.09991zM403.66711,341.69343l1.15396,5.17478h-2.30791z" data-paper-data="{&quot;glyphName&quot;:&quot;A&quot;,&quot;glyphIndex&quot;:18,&quot;word&quot;:4}" style="" fill="#c8f542"></path><path d="M417.80732,345.75031v-0.72122c0,-2.81277 0.45076,-4.38143 2.32594,-4.38143h0.16228c1.5326,0 1.9473,1.1179 1.9473,3.04717h2.92095v-0.6491c0,-3.51596 -1.69487,-4.92235 -5.03053,-4.92235c-3.66021,0 -5.28296,2.03746 -5.28296,6.90571v0.72122c0,4.86826 1.62275,6.90571 5.28296,6.90571c3.33566,0 5.03053,-1.40639 5.03053,-4.86826v-0.16228h-2.92095c0,1.51457 -0.52289,2.50625 -1.9473,2.50625h-0.16228c-1.87518,0 -2.32594,-1.56866 -2.32594,-4.38143z" data-paper-data="{&quot;glyphName&quot;:&quot;C&quot;,&quot;glyphIndex&quot;:19,&quot;word&quot;:4}" style="" fill="#c8f542"></path><path d="M436.97468,340.88206h3.26353v-2.52428h-9.42999v2.52428h3.2455v11.53957h2.92095z" data-paper-data="{&quot;glyphName&quot;:&quot;T&quot;,&quot;glyphIndex&quot;:20,&quot;lastGlyphOfWord&quot;:true,&quot;word&quot;:4}" style="" fill="#c8f542"></path></g><g data-paper-data="{&quot;isPrimaryText&quot;:true}" fill-rule="nonzero" fill="#c8f542"><path d="M136.64334,310.13243h-24.11049v-7.68485h24.11049zM140.04579,292.88551h-30.56342v34.43517h-7.62619v-38.21894c0,-0.52797 0.09777,-1.0266 0.29331,-1.49591c0.19554,-0.4693 0.46442,-0.87994 0.80662,-1.23192c0.3422,-0.35198 0.74795,-0.62574 1.21726,-0.82128c0.4693,-0.19554 0.97772,-0.29331 1.52524,-0.29331h34.34718z" data-paper-data="{&quot;glyphName&quot;:&quot;F&quot;,&quot;glyphIndex&quot;:0,&quot;firstGlyphOfWord&quot;:true,&quot;word&quot;:1}" style="" fill="#c8f542"></path><path d="M184.83499,327.32069h-34.78715c-0.54752,0 -1.05593,-0.09777 -1.52524,-0.29331c-0.4693,-0.19554 -0.87506,-0.46442 -1.21726,-0.80662c-0.3422,-0.3422 -0.61107,-0.74795 -0.80662,-1.21726c-0.19554,-0.4693 -0.29331,-0.97772 -0.29331,-1.52524v-38.21894h7.62619v34.43517h31.00339z" data-paper-data="{&quot;glyphName&quot;:&quot;L&quot;,&quot;glyphIndex&quot;:1,&quot;word&quot;:1}" style="" fill="#c8f542"></path><path d="M229.41886,323.47826c0,0.54752 -0.09777,1.05593 -0.29331,1.52524c-0.19554,0.4693 -0.4693,0.87506 -0.82128,1.21726c-0.35198,0.3422 -0.76262,0.61107 -1.23192,0.80662c-0.4693,0.19554 -0.96794,0.29331 -1.49591,0.29331h-17.18826c-1.62301,0 -3.26557,-0.17599 -4.92769,-0.52797c-1.66212,-0.35198 -3.27046,-0.89461 -4.82503,-1.6279c-1.55457,-0.73329 -3.01626,-1.66701 -4.38506,-2.80116c-1.3688,-1.13415 -2.56651,-2.47851 -3.59311,-4.03308c-1.0266,-1.55457 -1.83322,-3.33401 -2.41985,-5.33833c-0.58663,-2.00432 -0.87994,-4.2384 -0.87994,-6.70225v-21.03068h7.62619v21.03068c0,2.15098 0.2982,3.96953 0.89461,5.45566c0.59641,1.48613 1.35414,2.72783 2.27319,3.7251c0.91905,0.99727 1.9261,1.77944 3.02114,2.34652c1.09504,0.56708 2.13631,0.98749 3.1238,1.26125c0.98749,0.27376 1.85766,0.44486 2.6105,0.5133c0.75284,0.06844 1.24659,0.10266 1.48124,0.10266h13.40449v-34.43517h7.62619z" data-paper-data="{&quot;glyphName&quot;:&quot;U&quot;,&quot;glyphIndex&quot;:2,&quot;word&quot;:1}" style="" fill="#c8f542"></path><path d="M257.4891,300.27705l12.84719,-15.01773h10.41268l-18.09753,21.08934l17.98021,20.97202h-10.35402l-12.78853,-14.9004l-12.72987,14.9004h-10.38335l17.95087,-20.97202l-18.00954,-21.08934h10.32469z" data-paper-data="{&quot;glyphName&quot;:&quot;X&quot;,&quot;glyphIndex&quot;:3,&quot;lastGlyphOfWord&quot;:true,&quot;word&quot;:1}" style="" fill="#c8f542"></path><path d="M312.77897,302.44758h26.77965v-17.18826h7.62619v42.06136h-7.62619v-17.18826h-26.77965v17.18826h-7.62619v-42.06136h7.62619z" data-paper-data="{&quot;glyphName&quot;:&quot;H&quot;,&quot;glyphIndex&quot;:4,&quot;firstGlyphOfWord&quot;:true,&quot;word&quot;:2}" style="" fill="#c8f542"></path><path d="M397.31233,323.47826c0,0.54752 -0.09777,1.05593 -0.29331,1.52524c-0.19554,0.4693 -0.4693,0.87506 -0.82128,1.21726c-0.35198,0.3422 -0.76262,0.61107 -1.23192,0.80662c-0.4693,0.19554 -0.96794,0.29331 -1.49591,0.29331h-17.18826c-1.62301,0 -3.26557,-0.17599 -4.92769,-0.52797c-1.66212,-0.35198 -3.27046,-0.89461 -4.82503,-1.6279c-1.55457,-0.73329 -3.01626,-1.66701 -4.38506,-2.80116c-1.3688,-1.13415 -2.56651,-2.47851 -3.59311,-4.03308c-1.0266,-1.55457 -1.83322,-3.33401 -2.41985,-5.33833c-0.58663,-2.00432 -0.87994,-4.2384 -0.87994,-6.70225v-21.03068h7.62619v21.03068c0,2.15098 0.2982,3.96953 0.89461,5.45566c0.59641,1.48613 1.35414,2.72783 2.27319,3.7251c0.91905,0.99727 1.9261,1.77944 3.02114,2.34652c1.09504,0.56708 2.13631,0.98749 3.1238,1.26125c0.98749,0.27376 1.85766,0.44486 2.6105,0.5133c0.75284,0.06844 1.24659,0.10266 1.48124,0.10266h13.40449v-34.43517h7.62619z" data-paper-data="{&quot;glyphName&quot;:&quot;U&quot;,&quot;glyphIndex&quot;:5,&quot;word&quot;:2}" style="" fill="#c8f542"></path><path d="M448.14381,318.08127c0,0.93861 -0.16132,1.94566 -0.48397,3.02114c-0.32265,1.07549 -0.85061,2.07276 -1.5839,2.99181c-0.73329,0.91905 -1.68656,1.68656 -2.85982,2.30252c-1.17326,0.61596 -2.6105,0.92394 -4.31173,0.92394h-28.95019c-0.54752,0 -1.05593,-0.09777 -1.52524,-0.29331c-0.4693,-0.19554 -0.87506,-0.46442 -1.21726,-0.80662c-0.3422,-0.3422 -0.61107,-0.74795 -0.80662,-1.21726c-0.19554,-0.4693 -0.29331,-0.97772 -0.29331,-1.52524v-34.37651c0,-0.52797 0.09777,-1.0266 0.29331,-1.49591c0.19554,-0.4693 0.46442,-0.87994 0.80662,-1.23192c0.3422,-0.35198 0.74795,-0.62574 1.21726,-0.82128c0.4693,-0.19554 0.97772,-0.29331 1.52524,-0.29331h25.5184c0.93861,0 1.94566,0.16621 3.02114,0.49864c1.07549,0.33242 2.07765,0.86528 3.00648,1.59857c0.92883,0.73329 1.70123,1.68656 2.31719,2.85982c0.61596,1.17326 0.92394,2.6105 0.92394,4.31173v1.43724c0,1.34925 -0.22487,2.80116 -0.67462,4.35573c-0.44975,1.55457 -1.17326,3.02603 -2.17053,4.41439c0.86039,0.52797 1.66701,1.16348 2.41985,1.90655c0.75284,0.74306 1.4128,1.60346 1.97988,2.58117c0.56708,0.97772 1.01683,2.08254 1.34925,3.31446c0.33242,1.23192 0.49864,2.59095 0.49864,4.07708zM440.51763,316.61469c0,-0.99727 -0.15643,-1.89188 -0.4693,-2.68383c-0.31287,-0.79195 -0.75284,-1.47146 -1.31992,-2.03854c-0.56708,-0.56708 -1.25148,-1.00216 -2.0532,-1.30525c-0.80173,-0.30309 -1.70123,-0.45464 -2.6985,-0.45464h-17.18826v-7.68485h13.75647c0.99727,0 1.89677,-0.15155 2.6985,-0.45464c0.80173,-0.30309 1.48613,-0.73818 2.0532,-1.30525c0.56708,-0.56708 1.00216,-1.24659 1.30525,-2.03854c0.30309,-0.79195 0.45464,-1.68656 0.45464,-2.68383v-1.43724c0,-1.09504 -0.52797,-1.64256 -1.5839,-1.64256h-21.73464v26.80899h25.16642c0.13688,0 0.30309,-0.00978 0.49864,-0.02933c0.19554,-0.01955 0.37153,-0.07822 0.52797,-0.17599c0.15643,-0.09777 0.29331,-0.26398 0.41064,-0.49864c0.11733,-0.23465 0.17599,-0.5573 0.17599,-0.96794z" data-paper-data="{&quot;glyphName&quot;:&quot;B&quot;,&quot;glyphIndex&quot;:6,&quot;lastGlyphOfWord&quot;:true,&quot;word&quot;:2}" style="" fill="#c8f542"></path></g><g data-paper-data="{&quot;fillRule&quot;:&quot;evenodd&quot;,&quot;fillRuleOriginal&quot;:&quot;evenodd&quot;,&quot;isIcon&quot;:true,&quot;iconStyle&quot;:&quot;standalone&quot;,&quot;selectedEffects&quot;:{&quot;container&quot;:&quot;&quot;,&quot;transformation&quot;:&quot;&quot;,&quot;pattern&quot;:&quot;&quot;},&quot;bounds&quot;:{&quot;x&quot;:202.99906546377727,&quot;y&quot;:115,&quot;width&quot;:144.00186907244543,&quot;height&quot;:142.565321713191},&quot;iconType&quot;:&quot;icon&quot;,&quot;isDetailed&quot;:false,&quot;source&quot;:&quot;ai&quot;,&quot;rawIconId&quot;:&quot;J1tPmqMTIhZ8enPvwPl05qWYri4VUlxEZkIyqlEl5q&quot;,&quot;suitableAsStandaloneIcon&quot;:true}" fill-rule="evenodd" fill="#c8f542"><path d="M204.20392,172.52539c6.74721,-30.85061 31.26476,-53.30317 62.48896,-57.22477c5.20573,-0.65401 15.77242,-0.19461 21.40817,0.93026c33.8739,6.76115 58.80758,36.73586 57.007,68.5327c-0.49979,8.8277 -3.27407,18.15632 -7.8841,26.50899c-6.48402,11.74965 -18.30398,22.61053 -30.20719,27.75635c-15.74654,6.80803 -35.96445,6.04695 -50.91055,-1.91674c-2.13134,-1.1357 -3.82308,-2.11362 -3.75951,-2.17409c0.06384,-0.05962 2.01996,0.5251 4.34678,1.30024c7.0319,2.34087 11.57864,3.08985 18.91374,3.11488c15.91839,0.05456 29.15587,-5.63238 40.21841,-17.27881c10.097,-10.62942 15.51873,-24.04633 15.52519,-38.41867c0.00675,-15.69254 -7.62225,-32.48732 -19.64584,-43.24816c-15.55023,-13.91749 -26.65834,-19.67124 -40.82226,-21.145c-24.06237,-2.50358 -48.8795,15.10506 -56.92381,40.3893c-2.15019,6.75711 -2.7166,10.62688 -2.68574,18.33913c0.03038,7.49175 0.80234,12.03765 3.1994,18.83105c7.60729,21.55921 28.12167,41.48743 49.68679,48.26733c24.01877,7.55166 48.47433,1.12389 65.81614,-17.29794c7.107,-7.55025 11.61268,-15.15985 14.50846,-24.50421c0.96048,-3.09998 1.88131,-6.27842 2.0464,-7.0634c0.53916,-2.56334 0.64182,-1.13964 0.16791,2.3285c-1.74855,12.79647 -8.98858,26.40746 -19.79125,37.20816c-10.66626,10.66485 -22.82682,17.4276 -36.63328,20.37204c-7.21303,1.53846 -19.3418,1.90043 -26.16417,0.78048c-9.39753,-1.5424 -20.71208,-5.93108 -28.07192,-10.88789c-17.47923,-11.77186 -28.76971,-28.86815 -32.1667,-48.70777c-0.87849,-5.13147 -1.00392,-7.35928 -0.766,-13.60227c0.15678,-4.1063 0.65153,-9.1413 1.09898,-11.18967zM221.66424,152.10919c7.67049,-14.92295 23.20167,-26.34682 38.76203,-28.51143c6.95596,-0.9676 15.63713,0.14732 22.86535,2.93711c4.37406,1.68828 11.45602,5.3227 11.95974,6.13698c0.14091,0.22846 -1.3697,-0.10102 -3.35761,-0.73264c-12.24972,-3.88976 -26.57565,-2.61459 -38.93337,3.46566c-23.60075,11.61166 -35.53728,38.3361 -28.31824,63.40028c2.33336,8.10039 7.93383,17.84498 14.20269,24.71066l3.16551,3.46673l-2.42778,-1.72465c-3.32048,-2.35831 -10.56636,-10.097 -13.37754,-14.28627c-7.57543,-11.29093 -10.46423,-20.4342 -10.49908,-33.22955c-0.02838,-10.2396 1.56189,-17.07941 5.9583,-25.63289zM257.82326,168.78302c-7.30162,-7.39134 -13.92599,-14.16674 -14.72025,-15.05635l-1.44452,-1.61749h38.66702c23.46948,0 38.60205,0.18056 38.5008,0.46041c-0.09112,0.25285 -3.3607,4.06046 -7.26534,8.46123l-7.09912,8.0011h-33.33445v11.9454h16.21764c9.91166,0 16.15324,0.18225 16.0517,0.46801c-0.09112,0.25763 -3.72493,4.40134 -8.07507,9.20796l-7.90997,8.73996h-16.12876l-9.74178,-10.32763c-5.35788,-5.6802 -10.88029,-11.43942 -12.27193,-12.7976l-2.53044,-2.47025v-5.12022c0,-2.81676 0.19322,-5.12079 0.42947,-5.12079c0.23654,0 1.51427,1.1762 2.83926,2.61313c6.89831,7.48134 20.31326,21.27795 20.68901,21.27795c0.23682,0 0.42441,-1.1762 0.4171,-2.61313l-0.01434,-2.61284zM246.73878,204.97107v-12.49469c0,-6.9374 0.1966,-12.49441 0.44157,-12.49441c0.24272,0 5.73026,5.58204 12.19431,12.40497l11.75274,12.40441l-0.02419,13.10416l-0.02447,13.1036l-4.25312,-4.47952c-2.33975,-2.46378 -7.81632,-8.32004 -12.1704,-13.01416z" data-paper-data="{&quot;isPathIcon&quot;:true}" style="" fill="#c8f542"></path></g></g></g></svg>