<svg xmlns="http://www.w3.org/2000/svg" viewBox="0 0 256 256"><rect width="256" height="256" rx="36" fill="#1e1e1e"/><g transform="translate(-57.6,-57.5) scale(1.73)"><path d="M76.14372,75.69528c-10.14101,-10.26562 -19.3414,-19.67577 -20.44452,-20.91132l-2.00625,-2.24648h53.7035c32.59608,0 53.61326,0.25078 53.47264,0.63945c-0.12656,0.35117 -4.66758,5.63945 -10.09062,11.75156l-9.85976,11.1125h-46.29725v16.59062h22.52421c13.76601,0 22.43476,0.25312 22.29374,0.65c-0.12656,0.35781 -5.17344,6.11289 -11.21523,12.78867l-10.98593,12.13867h-22.40077l-13.53007,-14.34374c-7.4414,-7.88906 -15.11132,-15.88788 -17.04413,-17.77421l-3.51445,-3.43086v-7.11133c0,-3.91211 0.26836,-7.11211 0.59648,-7.11211c0.32852,0 2.10312,1.63359 3.94336,3.6293c9.58086,10.39062 28.21249,29.55233 28.73436,29.55233c0.32891,0 0.58945,-1.63359 0.5793,-3.6293l-0.01992,-3.6289zM60.7488,125.95581v-17.35351c0,-9.63515 0.27305,-17.35312 0.61328,-17.35312c0.33711,0 7.95859,7.75273 16.93632,17.2289l16.32304,17.22812l-0.03359,18.19999l-0.03398,18.19921l-5.90703,-6.22148c-3.24961,-3.42187 -10.85586,-11.55546 -16.90312,-18.07499z" fill-rule="evenodd" fill="#c8f542"/></g></svg>